<?xml version="1.0" encoding="iso-8859-1"?>
<!-- Uploaded to: SVG Repo, www.svgrepo.com, Generator: SVG Repo Mixer Tools -->
<!DOCTYPE svg PUBLIC "-//W3C//DTD SVG 1.1//EN" "http://www.w3.org/Graphics/SVG/1.1/DTD/svg11.dtd">
<svg fill="#000000" version="1.1" id="Capa_1" xmlns="http://www.w3.org/2000/svg" xmlns:xlink="http://www.w3.org/1999/xlink" 
	 width="800px" height="800px" viewBox="0 0 46.103 46.102"
	 xml:space="preserve">
<g>
	<g>
		<path d="M3.704,31.114h38.695c0.719,0,1.396-0.334,1.827-0.91c0.433-0.576,0.566-1.319,0.363-2.01
			c-2.106-7.158-7.683-12.825-14.779-15.063c0.011-0.146,0.017-0.292,0.017-0.441c0-3.736-3.039-6.775-6.775-6.775
			c-3.736,0-6.775,3.039-6.775,6.776c0,0.148,0.007,0.295,0.016,0.441C9.194,15.369,3.62,21.04,1.514,28.196
			c-0.204,0.69-0.068,1.431,0.361,2.006C2.306,30.78,2.985,31.114,3.704,31.114z M23.051,10.166c1.235,0,2.266,0.893,2.482,2.065
			c-0.815-0.089-1.645-0.136-2.482-0.136s-1.667,0.047-2.481,0.136C20.786,11.058,21.816,10.166,23.051,10.166z"/>
		<path d="M42.914,33.835H3.188C1.427,33.835,0,35.25,0,37.011c0,1.763,1.428,3.177,3.188,3.177h39.726
			c1.763,0,3.188-1.414,3.188-3.177C46.103,35.25,44.676,33.835,42.914,33.835z"/>
	</g>
</g>
</svg>