<svg id="Layer_1" height="512" viewBox="0 0 128 128" width="512" xmlns="http://www.w3.org/2000/svg" data-name="Layer 1"><path d="m77.954 60.187-5.991 5.552a.761.761 0 0 1 -1.075-1.075l5.552-5.991a.748.748 0 0 0 -.02-1.037l-.125-.125a.748.748 0 0 0 -1.037-.02l-5.991 5.552a.761.761 0 0 1 -1.075-1.075l5.552-5.991a.748.748 0 0 0 -1.065-1.05l-6.85 6.524a4.692 4.692 0 0 0 -1 5.392l-3.816 3.637-3.2-3.052a6.362 6.362 0 0 0 -.993-7.7c-2.486-2.486-9.207-5.176-11.692-2.691s.205 9.207 2.691 11.692a6.362 6.362 0 0 0 7.7.993l3 3.143-14.751 14.047a2.3 2.3 0 1 0 3.249 3.249l13.993-14.68 13.99 14.68a2.3 2.3 0 1 0 3.249-3.249l-14.741-14.052 3.58-3.756a4.692 4.692 0 0 0 5.392-1l6.52-6.852a.748.748 0 0 0 -1.05-1.065z"/><path d="m100.448 116.3-10.079-87.407c0-.011-.009-.02-.011-.031a1.735 1.735 0 0 0 -1.727-1.519h-2.078a19.306 19.306 0 0 0 -23.318-17.155 19.306 19.306 0 0 0 -23.318 17.155h-3.627a1.75 1.75 0 0 0 -1.744 1.61l-7 87.407a1.748 1.748 0 0 0 1.744 1.89h69.42a1.75 1.75 0 0 0 1.738-1.95zm-17.409-88.957h-4.615a19.315 19.315 0 0 0 -7.666-13.7 15.87 15.87 0 0 1 12.281 13.7zm-19.805-13.543a15.866 15.866 0 0 1 11.676 13.543h-23.351a15.865 15.865 0 0 1 11.675-13.543zm-7.523-.156a19.316 19.316 0 0 0 -7.666 13.7h-4.615a15.869 15.869 0 0 1 12.282-13.702zm-17.806 17.2h48.967l-.4 83.907h-55.286zm52.063 83.906.272-56.424 6.506 56.424z"/></svg>